<svg xmlns="http://www.w3.org/2000/svg" version="1.1" xmlns:xlink="http://www.w3.org/1999/xlink" width="2000" height="172" viewBox="0 0 2000 172"><svg xml:space="preserve" width="2000" height="172" data-version="2" data-id="lg_0OSFkMJax0IOIszV5z" viewBox="0 0 571 172" x="0" y="0"><rect width="100%" height="100%" fill="transparent"></rect><rect width="478.81" height="131.145" x="-239.405" y="-65.573" fill="none" stroke="#000000" paint-order="stroke" rx="0" ry="0" transform="translate(276.371 76.022)scale(1.1291)" vector-effect="non-scaling-stroke"></rect><rect width="478.81" height="131.145" x="-239.405" y="-65.573" fill="none" stroke="#000000" paint-order="stroke" rx="0" ry="0" transform="translate(294.629 95.973)scale(1.1291)" vector-effect="non-scaling-stroke"></rect><g transform="translate(289.815 91.4)"><filter id="a" width="140%" height="140%" x="-20%" y="-20%"><feGaussianBlur in="SourceAlpha"></feGaussianBlur><feOffset result="oBlur"></feOffset><feFlood flood-color="#F75CFF" flood-opacity="1"></feFlood><feComposite in2="oBlur" operator="in"></feComposite><feMerge><feMergeNode></feMergeNode><feMergeNode in="SourceGraphic"></feMergeNode></feMerge></filter><g filter="url(#a)"><path fill="#000000" d="m-141.505-38.45-1.07 5.07q-6.85-1.51-11.66-1.51-17.27 0-17.27 10.5 0 4.01 2.54 6.14 2.54 2.14 6.41 3.52t8.32 2.49q4.45 1.11 8.28 2.98 8.99 4.45 8.99 13.62 0 9.17-6.86 13.88-5.87 4.1-15.48 4.1-11.93 0-20.12-5.43l2.32-4.54q2.4 1.69 6.85 3.16 4.45 1.47 8.63 1.47 8.19 0 12.91-2.67 5.69-3.3 5.69-9.44 0-4.54-2.53-7.07-2.54-2.54-6.41-4.1-3.87-1.55-8.32-2.67-4.45-1.11-8.28-2.8-8.99-3.92-8.99-11.66t5.34-12.28q5.34-4.54 15.13-4.54 7.57 0 15.58 1.78m20.11-6.05v27.32q7.03-5.07 13.53-5.34 5.52 0 8.45 1.34 2.94 1.33 4.81 3.78 1.87 2.45 1.87 6.9v32.75h-5.79V-8.99q0-3.29-1.42-5.07-2.85-3.3-8.72-3.3-5.79.27-12.73 3.74v35.87h-5.78v-66.31zm38.27 55.36q-1.6-4.28-1.6-9.97 0-10.95 6.14-17.22 6.14-6.28 15.4-6.28 14.5 0 19.04 11.75 1.69 4.27 1.69 9.97 0 10.95-6.14 17.22t-15.39 6.27q-14.51 0-19.14-11.74m4.18-10.59q0 8.18 4.23 12.68 4.23 4.49 10.9 4.49 6.68 0 11.13-4.76 4.45-4.76 4.45-12.95t-4.18-12.68q-4.19-4.5-10.91-4.5t-11.17 4.77q-4.45 4.76-4.45 12.95m76.19 15.75q-2.94 2.94-6.54 4.4-3.61 1.47-6.19 1.65-2.58.18-5.07.18t-5.43-.45v22.25l-5.79.45v-64.44q1.96-.62 6.01-1.87 4.05-1.24 8.63-1.24 4.59 0 7.93.75 3.33.76 6.18 2.9 6.68 5.16 6.68 17.08 0 11.93-6.41 18.34m-23.23-32.4v33.64q2.67.63 5.7.63 8.72 0 13.43-5.16 4.72-5.17 4.72-14.51 0-9.35-4.8-13.35-3.39-2.76-8.68-2.76-5.3 0-10.37 1.51m39.96 39.34q-1.51 0-2.18-.89-.67-.89-.67-2.49t.85-2.58q.84-.98 2.53-.98 2.85 0 2.85 3.65 0 1.51-.93 2.4-.94.89-2.45.89m42.1-29.9-.45-9.35q-3.65-1.16-7.47-1.16-7.75 0-12.42 4.99-4.67 4.98-4.67 14.06 0 15.84 14.68 15.84 5.88 0 12.11-1.96 1.24-.35 1.51-.53l1.42 4.81q-3.11 1.87-11.3 2.67-2.31.17-4.89.17-7.57 0-12.46-3.73-6.86-5.17-6.86-17 0-11.84 6.37-18.2 6.36-6.37 16.42-6.37 3.2 0 6.81.85 3.6.84 5.56 2.62v11.66zm14.33 17.8q-1.61-4.28-1.61-9.97 0-10.95 6.15-17.22 6.14-6.28 15.39-6.28 14.51 0 19.05 11.75 1.69 4.27 1.69 9.97 0 10.95-6.14 17.22t-15.4 6.27q-14.51 0-19.13-11.74M74.585.27q0 8.18 4.23 12.68 4.22 4.49 10.9 4.49 6.67 0 11.12-4.76 4.45-4.76 4.45-12.95t-4.18-12.68q-4.18-4.5-10.9-4.5-6.72 0-11.17 4.77-4.45 4.76-4.45 12.95m62.83-17.63q-4.98.27-10.77 3.3v36.31h-5.78v-44.5l5.78-.45v4.99q5.97-4.54 11.57-4.81 9.44 0 13 4.72 6.76-4.45 13.08-4.72 5.43 0 8.37 1.34 2.93 1.33 4.85 3.78 1.91 2.45 1.91 6.9v32.75h-5.78V-8.99q0-3.29-1.52-5.07-2.76-3.3-7.83-3.3-5.34 0-11.39 3.21.44 1.78.44 3.65v32.75h-5.78V-8.99q0-3.29-1.42-5.07-2.85-3.3-8.73-3.3"></path></g></g></svg></svg>